<?xml version="1.0" encoding="UTF-8" standalone="no"?><svg xmlns="http://www.w3.org/2000/svg" xmlns:xlink="http://www.w3.org/1999/xlink" contentStyleType="text/css" height="748px" preserveAspectRatio="none" style="width:328px;height:748px;background:#FFFFFF;" version="1.1" viewBox="0 0 328 748" width="328px" zoomAndPan="magnify"><defs/><g><rect fill="#F1F1F1" height="37.6094" rx="12.5" ry="12.5" style="stroke:#181818;stroke-width:1.5;" width="154" x="86" y="10"/><text fill="#000000" font-family="sans-serif" font-size="14" lengthAdjust="spacing" textLength="134" x="96" y="34.5332">DNS Lookup Process</text><rect fill="#F1F1F1" height="37.6094" rx="12.5" ry="12.5" style="stroke:#181818;stroke-width:1.5;" width="174" x="76" y="72.6094"/><text fill="#000000" font-family="sans-serif" font-size="14" lengthAdjust="spacing" textLength="154" x="86" y="97.1426">URL (www.example.com)</text><rect fill="#F1F1F1" height="37.6094" rx="12.5" ry="12.5" style="stroke:#181818;stroke-width:1.5;" width="89" x="118.5" y="135.2188"/><text fill="#000000" font-family="sans-serif" font-size="14" lengthAdjust="spacing" textLength="65" x="128.5" y="159.752">OS Cache</text><rect fill="#F1F1F1" height="37.6094" rx="12.5" ry="12.5" style="stroke:#181818;stroke-width:1.5;" width="209" x="58.5" y="197.8281"/><text fill="#000000" font-family="sans-serif" font-size="14" lengthAdjust="spacing" textLength="189" x="68.5" y="222.3613">RNS - Resolving Name Server</text><rect fill="#F1F1F1" height="37.6094" rx="12.5" ry="12.5" style="stroke:#181818;stroke-width:1.5;" width="261" x="32.5" y="260.4375"/><text fill="#000000" font-family="sans-serif" font-size="14" lengthAdjust="spacing" textLength="241" x="42.5" y="284.9707">TLD - Top Level Domain Name Server</text><rect fill="#F1F1F1" height="37.6094" rx="12.5" ry="12.5" style="stroke:#181818;stroke-width:1.5;" width="286" x="20" y="323.0469"/><text fill="#000000" font-family="sans-serif" font-size="14" lengthAdjust="spacing" textLength="266" x="30" y="347.5801">ANS (Will respond to RNS with IP address)</text><rect fill="#F1F1F1" height="37.6094" rx="12.5" ry="12.5" style="stroke:#181818;stroke-width:1.5;" width="88" x="119" y="385.6563"/><text fill="#000000" font-family="sans-serif" font-size="14" lengthAdjust="spacing" textLength="68" x="129" y="410.1895">RNS to OS</text><rect fill="#F1F1F1" height="37.6094" rx="12.5" ry="12.5" style="stroke:#181818;stroke-width:1.5;" width="111" x="107.5" y="448.2656"/><text fill="#000000" font-family="sans-serif" font-size="14" lengthAdjust="spacing" textLength="91" x="117.5" y="472.7988">OS to Browser</text><rect fill="#F1F1F1" height="37.6094" rx="12.5" ry="12.5" style="stroke:#181818;stroke-width:1.5;" width="243" x="41.5" y="510.875"/><text fill="#000000" font-family="sans-serif" font-size="14" lengthAdjust="spacing" textLength="223" x="51.5" y="535.4082">Browser connects to the IP address</text><rect fill="#F1F1F1" height="37.6094" rx="12.5" ry="12.5" style="stroke:#181818;stroke-width:1.5;" width="273" x="26.5" y="573.4844"/><text fill="#000000" font-family="sans-serif" font-size="14" lengthAdjust="spacing" textLength="253" x="36.5" y="598.0176">Web server responds with the web page</text><rect fill="#F1F1F1" height="37.6094" rx="12.5" ry="12.5" style="stroke:#181818;stroke-width:1.5;" width="213" x="56.5" y="636.0938"/><text fill="#000000" font-family="sans-serif" font-size="14" lengthAdjust="spacing" textLength="193" x="66.5" y="660.627">Browser renders the web page</text><rect fill="#F1F1F1" height="37.6094" rx="12.5" ry="12.5" style="stroke:#181818;stroke-width:1.5;" width="172" x="77" y="698.7031"/><text fill="#000000" font-family="sans-serif" font-size="14" lengthAdjust="spacing" textLength="152" x="87" y="723.2363">User sees the web page</text><path d="M163,673.7031 L163,676.7031 C163,683.7031 163,688.7031 163,695.7031 L163,698.7031 " fill="none" style="stroke:#181818;stroke-width:1.0;"/><path d="M163,611.0938 L163,614.0938 C163,621.0938 163,626.0938 163,633.0938 L163,636.0938 " fill="none" style="stroke:#181818;stroke-width:1.0;"/><path d="M163,548.4844 L163,551.4844 C163,558.4844 163,563.4844 163,570.4844 L163,573.4844 " fill="none" style="stroke:#181818;stroke-width:1.0;"/><path d="M163,485.875 L163,488.875 C163,495.875 163,500.875 163,507.875 L163,510.875 " fill="none" style="stroke:#181818;stroke-width:1.0;"/><path d="M163,423.2656 L163,426.2656 C163,433.2656 163,438.2656 163,445.2656 L163,448.2656 " fill="none" style="stroke:#181818;stroke-width:1.0;"/><path d="M163,360.6563 L163,363.6563 C163,370.6563 163,375.6563 163,382.6563 L163,385.6563 " fill="none" style="stroke:#181818;stroke-width:1.0;"/><path d="M163,298.0469 L163,301.0469 C163,308.0469 163,313.0469 163,320.0469 L163,323.0469 " fill="none" style="stroke:#181818;stroke-width:1.0;"/><path d="M163,235.4375 L163,238.4375 C163,245.4375 163,250.4375 163,257.4375 L163,260.4375 " fill="none" style="stroke:#181818;stroke-width:1.0;"/><path d="M163,172.8281 L163,175.8281 C163,182.8281 163,187.8281 163,194.8281 L163,197.8281 " fill="none" style="stroke:#181818;stroke-width:1.0;"/><path d="M163,110.2188 L163,113.2188 C163,120.2188 163,125.2188 163,132.2188 L163,135.2188 " fill="none" style="stroke:#181818;stroke-width:1.0;"/><path d="M163,47.6094 L163,50.6094 C163,57.6094 163,62.6094 163,69.6094 L163,72.6094 " fill="none" style="stroke:#181818;stroke-width:1.0;"/><!--MD5=[0e5c257aec8322ac837f80b4887e292a]
@startmindmap
top to bottom direction
+ DNS Lookup Process
++ URL (www.example.com)
+++ OS Cache 
++++ RNS - Resolving Name Server
+++++ TLD - Top Level Domain Name Server
++++++ ANS (Will respond to RNS with IP address)
+++++++ RNS to OS
++++++++ OS to Browser
+++++++++ Browser connects to the IP address
++++++++++ Web server responds with the web page
+++++++++++ Browser renders the web page
++++++++++++ User sees the web page
@endmindmap

PlantUML version 1.2022.7(Mon Aug 22 19:01:30 EET 2022)
(GPL source distribution)
Java Runtime: Java(TM) SE Runtime Environment
JVM: Java HotSpot(TM) 64-Bit Server VM
Default Encoding: Cp1252
Language: en
Country: US
--></g></svg>